<svg xmlns="http://www.w3.org/2000/svg" width="247.823" height="236.967" viewBox="0 0 247.823 236.967">
  <g id="Grupo_2061" data-name="Grupo 2061" transform="translate(-216.553 -659.033)">
    <g id="Grupo_2056" data-name="Grupo 2056" transform="translate(-100.372 432.756)" opacity="0.05">
      <path id="Caminho_5313" data-name="Caminho 5313" d="M576.84,251.621a22.59,22.59,0,0,1-5.38-5.126c-1.207-1.8-1.309-3.808-1.886-5.746-1.031-3.46-1.658-6.83-3.922-9.706a12.3,12.3,0,0,0-8.687-4.716,10.348,10.348,0,0,0-5.076.97,43.274,43.274,0,0,0-10.787,6.176,7.666,7.666,0,0,0-2.834,3.813,6.083,6.083,0,0,0,.377,3.894,7.061,7.061,0,0,0,2.456,2.951,12.451,12.451,0,0,0,1.926,9.6c.454.715,1.186,1.1,1.475,1.883.67,1.8.49,3.594.575,5.482a1.536,1.536,0,0,0,.35,1.049,1.987,1.987,0,0,0,1.124.493c.879.177,1.777.329,2.656.513a4.479,4.479,0,0,0,.628,1.446,1.18,1.18,0,0,0,1.2.417c.1-.013.183-.087.273-.068s.137.136.072.162c.21-3.251,1.58-6.3,4.353-7.928s4.949-1.374,7.987-1.541,6.285-.134,9.294-.916a23.368,23.368,0,0,1-8.355,1.8c-2.314.158-4.048-.033-6.206.751a9.5,9.5,0,0,0-5.16,4.042,10.792,10.792,0,0,0-1.479,5.946,20.749,20.749,0,0,0,1.017,6.2,92.271,92.271,0,0,0,12.391,23.139,50.573,50.573,0,0,1,3.924,5.6,29.008,29.008,0,0,1,1.884,4.946c1.8,5.809,3.612,11.488,5.662,17.253.29.817.527,2.006.787,2.884a4.254,4.254,0,0,1,1.9-1.308,15.766,15.766,0,0,0-1.3,3.1,4.552,4.552,0,0,0,.358,2.937c.23.524.511.875.753,1.384a3.86,3.86,0,0,0,.905,1.428,5.5,5.5,0,0,0,2.467.906c.469.108,1.015,0,1.429.224a13.441,13.441,0,0,1,1.75,1.312c.461.383.532.852,1.029,1.079a2.816,2.816,0,0,0,2.167.242,2.412,2.412,0,0,0,1.805-1.779,2.016,2.016,0,0,0,1.523-.469,7.093,7.093,0,0,0,1.127-1.307,3.245,3.245,0,0,0,1.935-2.887,12.11,12.11,0,0,0-.887-3.971c-.225-.729-.559-1.5-.818-2.154a2.843,2.843,0,0,0-1.053-1.427,1.152,1.152,0,0,0-.817-.12c-2.906.127-5.78.317-8.675.479a15.979,15.979,0,0,1,5.5-.993,3.263,3.263,0,0,0,.126-1.754,1.935,1.935,0,0,0-1.141-1.156,2.966,2.966,0,0,0-1.515-.178,12.892,12.892,0,0,0-2.895.682,11.2,11.2,0,0,1,4.574-1.421.612.612,0,0,1,.435.176,2.968,2.968,0,0,0-1.713-2.653,4.616,4.616,0,0,0-2.9-.168,10.852,10.852,0,0,0-4.657,1.991,10.566,10.566,0,0,1,7.713-2.864,1.251,1.251,0,0,1,.794.447,6.71,6.71,0,0,0-1.2-2.708,4.507,4.507,0,0,0-3.443-2.054c-1.452-.105-2.364.658-3.651,1.053a6.341,6.341,0,0,1,2.149-1.5,5.452,5.452,0,0,1,2.444-.332,4.739,4.739,0,0,1,2.349,1.152,40.639,40.639,0,0,0-1.341-6.026c-1.005-3.072-2-6.133-2.759-9.2a11.782,11.782,0,0,0-1.245-3.825,3.382,3.382,0,0,0-2.859-1.418,18.374,18.374,0,0,0-5.381.635,12.629,12.629,0,0,1,4.565-1.52,35.229,35.229,0,0,0-4.223-1.611,3.461,3.461,0,0,0-.908-.18,9.4,9.4,0,0,0-2.841.492,9.147,9.147,0,0,1,5.6-.812,26.234,26.234,0,0,1,5.548,2.316c-.825-2.6-2.186-5.064-4.59-6.381-4.081-2.235-7.588-2.379-12.065-2.03,5.966-1.405,9.82-.25,14.578,3.5a16.05,16.05,0,0,0-3.891-7.214,24.371,24.371,0,0,0-5.469-4.4,4.678,4.678,0,0,0-2.692-.766,2.833,2.833,0,0,0-2.317,1.628c.619-1.134,1.441-2.268,2.809-2.374a5.758,5.758,0,0,1,3.562.961,28.964,28.964,0,0,1,7.384,6.566c-.134-2.132-.042-4.4-1.074-6.312a7.207,7.207,0,0,0-3.74-3.324c-4.3-1.872-8.556-2.277-13.205-2.22a35.306,35.306,0,0,1,14.542,1.757,30.924,30.924,0,0,0-12.772-6.211,62.989,62.989,0,0,1,6.671,1.367,11.227,11.227,0,0,1,3.1,1.318,18.135,18.135,0,0,1,5.219,5.812c-1.884-5.842-5.17-9.119-10.386-12.19,2.721.8,5.366,1.693,7.436,3.673s2.808,4.325,3.73,6.931a22.8,22.8,0,0,0-3.008-11.5,12.5,12.5,0,0,1,3.969,7.217c.724,4.41-.273,8.686.213,13.037.745,6.667,3.271,12.459,5.569,18.753,1.561,4.274,3.174,8.874,4.463,13.275.452,1.543.2,2.92.58,4.493a10.906,10.906,0,0,0,2.143,4.405,11.553,11.553,0,0,0,2.183,1.87c2.306,1.69,4.685,3.332,7.012,5.007a2.82,2.82,0,0,0,.975.467,10.955,10.955,0,0,0-1.563-5.8,5.892,5.892,0,0,0-1.585-1.32c-1.133-.833-2.332-1.586-3.476-2.4,1.821.984,3.672,1.906,5.5,2.874.063.033.127.092.209.051a.225.225,0,0,0,.135-.227c-.1-1.38.071-2.528-.667-3.822a11.7,11.7,0,0,0-3.251-3.267c-1.881-1.407-3.859-2.677-5.818-3.966,2.71,1.537,5.505,2.93,8.267,4.36-.68-10.635-.323-19.516,4.465-29.289,1.7-3.47,4.356-7.166,5.28-10.989s.438-6.744-.677-10.388c1.138,1.589,2.238,2.787,2.528,4.831a16.511,16.511,0,0,1-.758,6.19A24.674,24.674,0,0,0,612.5,272.2a11.573,11.573,0,0,0,1.185-2.3,16.552,16.552,0,0,0,.6-3.3,11.757,11.757,0,0,1-1.343,6.5,30.814,30.814,0,0,1-4.883,6.141,160.115,160.115,0,0,1,27.022-3.778c1.085-.072,1.8.14,2.82.036a.932.932,0,0,0,.527-.234.95.95,0,0,0,.26-.477,13.809,13.809,0,0,0,.325-1.346,5.582,5.582,0,0,1-.141,2.225,55.937,55.937,0,0,1,12.858.344,4.463,4.463,0,0,0,3.237-.77,6.354,6.354,0,0,1-1.67,1.511,4.907,4.907,0,0,0,2.594,2.3,2.24,2.24,0,0,0,1.314-.152,26.476,26.476,0,0,0,4.07-1.509,2.668,2.668,0,0,0,1.522-1.293,2.491,2.491,0,0,0-.171-2.047,11.841,11.841,0,0,0-1.248-2.145c-.448-.607-.782-1.269-1.5-1.481-1.5-.44-2.951.051-4.467-.006a8.486,8.486,0,0,0,1.052,2.166,6.4,6.4,0,0,1-1.653-1.807,6.177,6.177,0,0,0-1.232-2.021,3.48,3.48,0,0,0-1.884-.6c-1.418-.21-2.765-.281-4.176-.38.832,1.1,1.6,2.241,2.42,3.353-1.4-1.3-2.711-2.655-4.2-3.87s-2.718-2.623-4.519-3.45a18.585,18.585,0,0,0-14.078-.835,46.239,46.239,0,0,1,4.354,4.74c-6.618-4.694-13.754-7.229-21.442-9.633a22.366,22.366,0,0,1,3.772,6.625,47.886,47.886,0,0,0-4.878-5.908,12.632,12.632,0,0,0-6.837-3.159,91.988,91.988,0,0,0-11.225-1.127c8.353,6.868,11.311,12.553,8.915,23.328.744-6.646.681-11.508-3.39-17.157a19.858,19.858,0,0,0-6.009-5.289,15.856,15.856,0,0,0-8.189-1.734,31.986,31.986,0,0,1,9.187,6.724c2.478,2.8,3.4,5.591,4.475,9.027a33.9,33.9,0,0,0-6-9.378,22.92,22.92,0,0,0-5.9-4.628c-1.237-.668-2.927-.994-4.137-1.594A18.687,18.687,0,0,1,576.84,251.621Z" transform="translate(-98.205 0)" fill="#231f20"/>
      <path id="Caminho_5314" data-name="Caminho 5314" d="M586.559,398.086c.456-.516.836-.691.8-1.493a2.589,2.589,0,0,0-.95-2.218,3.628,3.628,0,0,0-2.549-.644,57.676,57.676,0,0,0-14.845,3.2,38.371,38.371,0,0,1,15.492-4.422c.825-.051,1.479.1,1.823-.705.48-1.118-.16-2.036-.471-3.133a30.34,30.34,0,0,0-1.57-5.1c-2.063-4.222-5.23-7.99-7.851-11.748-2.272-3.258-3.7-6.608-5.468-9.946-1.032,7.755,1.412,18.48.032,25.473-1.232,6.237-5.016,8.79-6.166,13.816-.709,3.1-.289,2.7.55,5.259a1.29,1.29,0,0,0,.873,1.92,4.079,4.079,0,0,0,2.512-.808c4.612-2.271,9.159-3.952,14.308-3.986,2.071-.014,3.725.787,5.734.83a.643.643,0,0,0,.587-.192.668.668,0,0,0,.045-.626c-.238-.955-.5-1.919-.8-2.846a1.979,1.979,0,0,0-.6-1.011,1.341,1.341,0,0,0-.951-.275,46.431,46.431,0,0,0-16.332,3.82A43.956,43.956,0,0,1,586.559,398.086Z" transform="translate(-113.57 -78.931)" fill="#231f20"/>
      <path id="Caminho_5315" data-name="Caminho 5315" d="M579.629,466.766c-4.175.008-8.168-.643-12.362.126s-8.285,1.78-11.393,5-2.723,6.971-1.431,10.962a54.989,54.989,0,0,0-1.969,13.607c-.2,3.671-2.188,7.256-3.1,10.785a51.6,51.6,0,0,0-1.062,7.291c-.438,3.875-.839,7.665-1.245,11.555a62.337,62.337,0,0,0,0,13.178c.056.521-.058,1.013,0,1.54a1.593,1.593,0,0,0,.718,1.3,1.052,1.052,0,0,0,1.335-.254,6.31,6.31,0,0,0,2.868,4.355,8.945,8.945,0,0,0,5.285.951,28.855,28.855,0,0,0,5.339-1.346,9.41,9.41,0,0,0,5.606-.389,32.551,32.551,0,0,0,5.29-2.919c12.065-7.285,23.931-13.583,37.3-18.357,8.545-3.051,16.54-4.241,25.714-5.166,6.788-.685,13.916.514,20.71-.3a6.073,6.073,0,0,0,5.756-8.266,12.956,12.956,0,0,0-4.287-6c-2.155-1.838-4.339-3.544-7.2-3.888-4.874-.587-9.711.769-14.548.262-2.143-.225-4.017-1.259-6.172-1.208-3.085.074-5.107,1.864-6.9,4.209a18.124,18.124,0,0,1,5.521.53,4.057,4.057,0,0,1,2.218,1.006c1.256,1.418,1.1,3.164,1.672,4.857a27.192,27.192,0,0,0,3.109,5.747,18.629,18.629,0,0,1-4.72-6.331c-.508-1.2-.626-2.409-1.6-3.354a2.957,2.957,0,0,0-1.994-.9,15.287,15.287,0,0,0-4.739-.041c-2.467.587-4.3,2.925-6.788,3.59-2.919.781-5.962.457-8.859,1.385a29.9,29.9,0,0,0,1.517,10.967,20.242,20.242,0,0,1-3.206-10.449c-5.75,1.817-11.652,2.773-17.561,3.9s-11.4,2.725-16.56,5.847a21.1,21.1,0,0,0-5.151,4.861,27.764,27.764,0,0,0-5.089,8.377c-1.145,3.176-.76,6.264-.127,9.517a20.008,20.008,0,0,1-1.9-7.183c-1.766,1.422-3.6,2.786-5.341,4.216,1.693-1.961,3.794-3.923,5.406-5.881,3.021-3.672,4.823-7.776,7.247-11.778a42.794,42.794,0,0,0-10.5,2.906,6.48,6.48,0,0,0-2.425,1.949,28.205,28.205,0,0,1,10.686-6.179,50.333,50.333,0,0,0-8.336-.107,37.487,37.487,0,0,1,9.3-1.386,18.31,18.31,0,0,0,3.541-.042,25.522,25.522,0,0,0,6.1-2.646,52.292,52.292,0,0,1,9.462-3.616c1.792-4.691,3.292-9.03,2.539-14.1a8.247,8.247,0,0,0-2.405-4.565c-4.569-4.933-10.041-7.986-16.2-10.625,7.881,2.533,13.98,5.923,19.4,12.277a14.743,14.743,0,0,0-2.786-7.5,42.135,42.135,0,0,0-6.05-5.748,7.551,7.551,0,0,0-1.805-1.1c7.775,5.549,11.366,11.04,12.158,20.637a22.574,22.574,0,0,0,2.257-12.855,16.783,16.783,0,0,1-.653,12.037c-1.716,4.017-3.934,7.482-5.271,11.625,4.462-1.145,8.856-1.716,12.83-4.274a17.481,17.481,0,0,0,5.816-6.206c3.444-6.171,5.5-12.162,5.092-19.342-.251-4.386-2.818-7.306-5.959-10.117a2.724,2.724,0,0,0,1.452.268,2.432,2.432,0,0,0,.345-2.26,5.578,5.578,0,0,0-1.491-2.008,16.951,16.951,0,0,0-3.7-2.454c.068,1.66.588,3.137.669,4.821a3.7,3.7,0,0,1-2.059,3.742,4.128,4.128,0,0,1-2.613,1.7,2.988,2.988,0,0,1-2.234,1.863,5.269,5.269,0,0,1-4.088-1.213c-.509-.36-.769-.923-1.277-1.269-1.432-.976-3.18-1.112-4.609-2.121s-2.034-2.59-2.724-4.171C580.852,469.316,580.3,468.005,579.629,466.766Z" transform="translate(-103.233 -139.84)" fill="#231f20"/>
      <path id="Caminho_5316" data-name="Caminho 5316" d="M442.791,606.969c-1.166.833-2.269,1.665-3.467,2.472-.183.123-.3.315-.617.2a1.245,1.245,0,0,1-.682-.787,17.729,17.729,0,0,0-3.242-5.248c.8,1.531,1.635,3.06,2.43,4.593a3.158,3.158,0,0,1,.453,1.339,2.957,2.957,0,0,1-.327,1.339c-2.29,4.9-4.384,10.274-8.016,14.258-5.542,6.08-11.749,10.9-17.862,16.237a1.7,1.7,0,0,1-1.046.44c-.364.011-.528-.183-.778-.353-1.355-.919-2.693-1.821-4.027-2.762.888,1.013,1.973,1.73,2.835,2.787a3.643,3.643,0,0,1,.8,3.543,2.447,2.447,0,0,1-.814,1.037c-2.871,2.692-5.864,5.269-8.783,7.914a20.274,20.274,0,0,0-8.479,2.257,20.011,20.011,0,0,1-2.561,1.56,3.111,3.111,0,0,1-2.826-.009c-.984-.561-1.293-1.666-1.906-2.613a2.9,2.9,0,0,0-2.636-1.345c1.821,1.443,2.061,3.808,3.784,5.36.917.826,2.223.419,3.286-.109s1.834-1.519,2.878-2.174a14.054,14.054,0,0,1,7.2-2.177,1.514,1.514,0,0,1,1.313.478c.356.413.187.978.3,1.513.369,1.759,1.651,3.209,1.489,5.1a3.3,3.3,0,0,1-1.668,2.174c-2.79,2.043-5.464,3.9-9.051,3.909-2.407,0-4.324-1.642-6.613-2.125-3.848-.811-7.768-.494-11.66-1.1-1.7-.265-3.2-1.224-3.119-3.117.05-1.148,1.051-1.622,1.951-2.249,3.509-2.444,7.1-4.723,10.193-7.769a169.4,169.4,0,0,1,15.4-13.69,8.1,8.1,0,0,1,5.955-1.735c-.393-.577-.713-1.483-.242-2.065,4.349-5.376,7.512-11,11.2-16.882A41.873,41.873,0,0,1,428.214,603.1a58.423,58.423,0,0,0-7.2,3.1,38.034,38.034,0,0,1,5.019-8.851,20.655,20.655,0,0,1,6.727,2.249,12.848,12.848,0,0,0-6.645-4.1,32.979,32.979,0,0,1,7.48-9.436c3.1-2.787,6.339-5.453,9.489-8.2-.228,5.962-.327,11.8-.587,17.793A53.085,53.085,0,0,0,442.791,606.969Z" transform="translate(0 -204.659)" fill="#231f20"/>
    </g>
    <path id="Caminho_5355" data-name="Caminho 5355" d="M116.835,136.582a26.306,26.306,0,1,1-26.213,26.3,26.268,26.268,0,0,1,26.213-26.3Zm5.56,46.9c1.059.326,2.057.612,3.015.816a19.864,19.864,0,0,0,2.281.347h0a23.923,23.923,0,0,1-10.856,2.571c-.428,0-.876,0-1.3-.041h0a8.665,8.665,0,0,1-.082-1.081c1.08-.326,2.22-.694,3.361-1.1,1.182-.469,2.363-.958,3.585-1.509Zm12.852-4.753h0c.224-.632.224-.632.468-1.306.306-1.019.591-2.1.855-3.223.856-.8,1.63-1.591,2.343-2.366.448-.551.448-.551.876-1.061h0a24.282,24.282,0,0,1-4.542,7.956Zm5.784-17.625h0c-.632-.857-.632-.857-1.385-1.754-.672-.714-1.405-1.448-2.22-2.223-.142-1.285-.305-2.591-.509-3.815-.224-1.2-.468-2.346-.754-3.468.469-.2.469-.2.876-.408h.02a24.266,24.266,0,0,1,3.972,11.668ZM130.95,171.363c1.018.592,1.976,1.163,2.872,1.673.835.469,1.609.9,2.3,1.285-.265,1.143-.55,2.244-.856,3.264-.326.979-.326.979-.672,1.856v.02a24.027,24.027,0,0,1-4.684,3.917l-.245.143c-.651.408-.651.408-1.324.775a21.112,21.112,0,0,1-2.546-.408q-1.466-.336-3.055-.856c.143-.979.244-2.019.367-3.142.081-1.2.183-2.468.265-3.794,1.324-.755,2.607-1.53,3.89-2.305,1.263-.816,2.485-1.612,3.687-2.428Zm-31.591-.347c1.059.8,2.159,1.612,3.3,2.407,1.181.816,2.383,1.591,3.626,2.387.143,1.285.305,2.53.468,3.692.183,1.1.367,2.122.57,3.081q-1.406.367-2.628.612a9.848,9.848,0,0,1-1.018.123v.02a24.376,24.376,0,0,1-7.984-8.506v-.02c-.163-.592-.163-.592-.326-1.2.469-.327,1.039-.694,1.67-1.122.692-.449,1.487-.938,2.322-1.469Zm23.953-14.158c1.344.816,2.668,1.612,3.972,2.428,1.263.8,2.485,1.591,3.666,2.366.021,1.53,0,3.06-.041,4.57-.041,1.489-.122,2.978-.224,4.447-1.2.8-2.424,1.611-3.686,2.407-1.3.8-2.607,1.571-3.931,2.346-1.263-.653-2.566-1.325-3.89-2.019-1.344-.734-2.729-1.469-4.094-2.244-.02-1.55-.02-3.121-.041-4.712v-4.855c1.405-.816,2.811-1.612,4.2-2.428,1.385-.775,2.729-1.55,4.074-2.305Zm-17.068.122c1.242.714,2.526,1.469,3.849,2.224q2.016,1.163,4.094,2.387v4.855c.02,1.591.02,3.162.041,4.712-1.344.735-2.648,1.449-3.951,2.122-1.242.673-2.465,1.285-3.646,1.877-1.242-.775-2.485-1.591-3.666-2.387-1.161-.816-2.261-1.612-3.34-2.407-.1-1.387-.2-2.815-.285-4.264-.041-1.448-.061-2.917-.041-4.386,1.019-.775,2.118-1.55,3.259-2.326,1.2-.8,2.424-1.612,3.687-2.407Zm-11.182-4.814v.021c-.224.857-.224.857-.428,1.734-.224,1.163-.408,2.346-.57,3.57-.631.775-.631.775-1.161,1.469v.02a23.774,23.774,0,0,1,2.159-6.814Zm6.029-6.263c.754.244,1.548.53,2.444.836.916.388,1.935.8,2.974,1.265-.143,1.244-.265,2.57-.387,3.937-.122,1.407-.2,2.876-.285,4.365-1.243.816-2.465,1.611-3.646,2.407-1.121.8-2.2,1.571-3.239,2.346-.916-.694-1.792-1.347-2.587-1.979-.713-.591-1.365-1.162-1.935-1.672.162-1.224.346-2.448.57-3.61.326-1.469.326-1.469.693-2.856h0c.143-.245.285-.49.428-.714v-.021c1.019-1,1.019-1,2.139-2.019.9-.755,1.854-1.53,2.831-2.285Zm28.454-.775c1.12.734,2.2,1.469,3.259,2.223,1,.775,1.976,1.571,2.913,2.367.265,1.1.51,2.265.734,3.468.183,1.244.346,2.55.489,3.876-.774.571-1.63,1.183-2.546,1.836-1,.673-2.037,1.367-3.137,2.081-1.181-.8-2.383-1.571-3.646-2.387-1.3-.816-2.607-1.632-3.951-2.427-.041-1.53-.1-3.019-.163-4.468-.081-1.407-.163-2.754-.265-4.039,1.2-.53,2.322-1.02,3.422-1.449,1.018-.408,2-.755,2.892-1.081Zm-1.507-3.836h0c.163.367.163.367.305.735.285.775.55,1.632.815,2.55-.916.285-1.874.632-2.913,1-1.08.428-2.2.9-3.4,1.407q-1.925-1.01-3.849-1.958c-1.263-.571-2.505-1.122-3.727-1.632.061-.979.082-1.876.122-2.713.02-.735.081-1.387.122-1.938.366-.1.366-.1.713-.184h0a6.028,6.028,0,0,1,.611-.021,24.141,24.141,0,0,1,11.2,2.754Zm-13.667-2.611h0l.489.082c-.082.571-.143,1.223-.183,1.938-.041.836-.1,1.734-.143,2.713-1.242.571-2.505,1.183-3.768,1.816-1.263.673-2.526,1.367-3.768,2.1-1.059-.449-2.057-.857-2.994-1.2-.876-.327-1.691-.572-2.444-.8a19.161,19.161,0,0,1,.774-1.938v-.02a23.933,23.933,0,0,1,12.038-4.692Zm-6.579,44.37c1.161.592,2.342,1.163,3.5,1.673,1.181.49,2.342.938,3.463,1.326.061.592.061.592.1,1.081h0a24.039,24.039,0,0,1-10.551-3.407h.02c.387-.041.387-.041.814-.1.815-.143,1.711-.327,2.648-.571Zm-12.852-9.69h0l.081.082a1.357,1.357,0,0,0,.041.143v.02l-.122-.245Z" transform="translate(125.931 641.52)" fill="#110d0e" fill-rule="evenodd" opacity="0.05"/>
  </g>
</svg>
