<svg xmlns="http://www.w3.org/2000/svg" width="416.328" height="416.324" viewBox="0 0 416.328 416.324">
  <g id="Grupo_41" data-name="Grupo 41" transform="translate(-1263.681 -114.951)">
    <path id="Caminho_83" data-name="Caminho 83" d="M423.244,225.078c0,109.443-88.722,198.162-198.162,198.162S26.916,334.522,26.916,225.078,115.638,26.916,225.082,26.916s198.162,88.719,198.162,198.162" transform="translate(1246.765 98.035)" fill="#002d66" stroke="#31a7df" stroke-width="20"/>
    <path id="Caminho_84" data-name="Caminho 84" d="M334.037,158.391a12.1,12.1,0,0,0-9.746-4.848c-.3,0-.589,0-.881,0-25.771,0-44.571-8.2-53.537-13.131a14.644,14.644,0,0,0-18.561,3.7,69.459,69.459,0,0,1-11.3,11.116,6.542,6.542,0,0,0-2.146,3.063,6.54,6.54,0,0,0-3.587,1.095c-2.149,1.431-4.447,2.832-6.835,4.169a6.527,6.527,0,0,0-2.666,2.8,6.546,6.546,0,0,0-3.826.567c-2.084,1-4.266,1.98-6.477,2.9a6.536,6.536,0,0,0-3.118,2.727,6.49,6.49,0,0,0-4.144.094c-2.894,1.037-5.917,2.034-8.984,2.951a6.543,6.543,0,0,0-3.345,2.334c-.116-.047-.235-.09-.35-.13l.058-.069a79.429,79.429,0,0,0,17.51-32.23,80.231,80.231,0,0,0,2.735-24.489A78.634,78.634,0,0,0,198.18,76a82.139,82.139,0,0,0-17.831-16.845,81.509,81.509,0,0,0-35.023-13.742,82.854,82.854,0,0,0-12.738-.824,84.122,84.122,0,0,0-12.38,1.062,83.108,83.108,0,0,0-12.152,2.89,81.933,81.933,0,0,0-39,26.837,80.636,80.636,0,0,0-6.979,10.227,78.787,78.787,0,0,0-8.9,23.528A80.068,80.068,0,0,0,52.109,134.6a78.257,78.257,0,0,0,6.885,23.976,80.684,80.684,0,0,0,20.826,27.2,40.646,40.646,0,0,0-21.852,5.079c-8.6,4.794-14.883,12.5-16.8,20.616-1.47,6.25,2.341,13.016,11.647,20.624l-.639,5.22a6.538,6.538,0,0,0,4.566,7.041l6.893,2.117a6.532,6.532,0,0,0,7.225-2.435q1.4.786,2.847,1.553l-.918,7.485a6.535,6.535,0,0,0,4.566,7.041l6.893,2.117a6.531,6.531,0,0,0,7.514-2.872l2.54-4.212c3.031,1.217,6.073,2.355,9.1,3.407l-.462,3.786a6.534,6.534,0,0,0,4.566,7.041L114.4,271.5a6.537,6.537,0,0,0,7.518-2.872l2.493-4.14a124.464,124.464,0,0,0,12.467,2.023l-.408,3.32a6.538,6.538,0,0,0,4.566,7.041l6.893,2.117a6.531,6.531,0,0,0,7.514-2.872l3.667-6.083c16.13,3.566,37.949,9.822,66.379,19.031l-.509,4.158a6.532,6.532,0,0,0,4.566,7.041l6.893,2.117a6.534,6.534,0,0,0,7.514-2.872l2.186-3.627c4.678,1.564,9.2,3.092,13.706,4.62l-.4,3.309A6.532,6.532,0,0,0,264,310.855l6.889,2.117a6.534,6.534,0,0,0,7.518-2.872l1.662-2.756c9.866,3.287,11.737,3.721,13.186,3.826,5.007.358,8.475-1.037,10.3-4.144q.141-.238.26-.477c6.918-3.8,12.449-10.7,16.469-20.559,4.794-11.751,7.662-27.831,8.771-49.148a6.692,6.692,0,0,0-.155-1.792,6.546,6.546,0,0,0,.318-1.759c.083-2.009.152-4.017.2-5.964.152-5.9,3.569-48.757,6.47-58.229a12.068,12.068,0,0,0-1.857-10.707" transform="translate(1283.204 144.192)" fill="#fff"/>
    <path id="Caminho_85" data-name="Caminho 85" d="M214.567,200.9c35.3-52.742,103.27-40.619,103.393-40.6.079-1.907.144-3.855.2-5.856.141-5.523,3.511-49.39,6.752-59.974a5.5,5.5,0,0,0-5.307-7.109c-27.74.2-48.035-8.67-57.612-13.937a8.148,8.148,0,0,0-10.306,2.048,75.775,75.775,0,0,1-12.358,12.174,37.792,37.792,0,0,0,1.282,9.7,2.29,2.29,0,0,1-.78,2.334l-1.716,1.391a2.285,2.285,0,0,1-3.641-1.16,48.314,48.314,0,0,1-1.3-7.745l-.007-.051c-2.363,1.579-4.794,3.053-7.268,4.436-.8,3.334-.524,7.958-.311,10.274a2.29,2.29,0,0,1-1.123,2.189l-1.9,1.113a2.288,2.288,0,0,1-3.428-1.694,48.115,48.115,0,0,1-.112-7.854c.011-.21.022-.372.029-.48-2.251,1.084-4.519,2.1-6.788,3.045-1.514,3.154-2.03,8.2-2.2,10.671a2.3,2.3,0,0,1-1.456,1.98l-2.063.8a2.288,2.288,0,0,1-3.11-2.222,47.827,47.827,0,0,1,1.138-7.77c.054-.242.094-.419.119-.52-3.161,1.138-6.282,2.157-9.32,3.067-1.626,3.027-2.529,7.619-2.9,9.931a2.281,2.281,0,0,1-1.633,1.835l-2.124.6a2.286,2.286,0,0,1-2.894-2.5,48.284,48.284,0,0,1,1.857-7.633l.033-.1c-3.392.874-6.6,1.611-9.562,2.233a38.761,38.761,0,0,0-3.3,8.926,2.3,2.3,0,0,1-1.785,1.691l-2.171.419a2.287,2.287,0,0,1-2.666-2.738,45.657,45.657,0,0,1,2.24-6.824c-5.776,1.008-9.6,1.452-10.357,1.626a17.255,17.255,0,0,0-4.234,10,3.144,3.144,0,0,1-2.373,2.666l-.838.206a3.123,3.123,0,0,1-3.829-3.6,26.163,26.163,0,0,1,2.72-7.416c-2.948.614-6.073,1.235-9.3,1.832a17.956,17.956,0,0,0-3.526,9.19,3.109,3.109,0,0,1-2.344,2.644l-.863.213a3.122,3.122,0,0,1-3.833-3.58,25.826,25.826,0,0,1,2.532-7.073c-3,.488-6.036.936-9.064,1.329a19.421,19.421,0,0,0-2.2,7.164,3.13,3.13,0,0,1-2.348,2.677l-.867.217a3.12,3.12,0,0,1-3.829-3.584,24.651,24.651,0,0,1,1.828-5.625c-3.4.329-6.726.56-9.913.668a20.328,20.328,0,0,0-1.543,5.831,3.115,3.115,0,0,1-2.33,2.67l-.885.22a3.12,3.12,0,0,1-3.829-3.584,24.151,24.151,0,0,1,1.6-5.115,52.3,52.3,0,0,1-10.776-1.326,26.227,26.227,0,0,1,5.986,14.977S155.12,145.175,207.1,127.21l-.043-.079h.275c17.546-6.091,34.268-15.028,47.627-28.036,0,0-12.766,16.2-44.831,28.629a37.849,37.849,0,0,1-4.183,34.235c6.4-18.384,3.41-29.965,1.85-33.35a199.181,199.181,0,0,1-35.124,9.324c5.693,16.458-1.145,26.736-1.145,26.736,3.367-12.25-.1-23.589-1.438-26.306a268.986,268.986,0,0,1-40.03,3.334h.094c5.9,16.751.531,22.1.531,22.1,2.876-10.9-3.389-22.076-3.389-22.076h.018c-9.732.029-20.118-.39-31.179-1.347a37.942,37.942,0,0,1-4.064,16.682c9.187-23.817-7.062-35.485-7.095-35.507C63.945,114.5,45.81,127.484,42.8,140.265c-.975,4.14,3.876,10.025,12.221,16.249l-1.091,8.89,6.893,2.117,3.053-5.065c3.724,2.276,7.807,4.537,12.138,6.719l-1.47,11.99,6.893,2.117,5.444-9.031a201.935,201.935,0,0,0,18.929,7.084l-1.113,9.1,6.889,2.117,4.938-8.189a119.845,119.845,0,0,0,18.76,3.179c1.311.1,2.7.256,4.154.441l-1.217,9.941,6.893,2.117,6.069-10.064c21.314,4.321,50.593,13.294,76.711,21.841l-1.163,9.5,6.893,2.117,4.888-8.11c8.619,2.868,16.682,5.6,23.73,8l-1.051,8.583,6.893,2.117,4.364-7.243c9.15,3.089,15.245,5.076,16.542,5.166,6,.43,4.075-2.518,4.075-2.518,13.084-4.79,22.52-22.957,24.738-65.628C253.629,150.8,214.567,200.9,214.567,200.9" transform="translate(1287.931 216.902)" fill="#002d66"/>
    <path id="Caminho_86" data-name="Caminho 86" d="M195.852,116.574a71.681,71.681,0,0,0-9.129-32.046,72.981,72.981,0,0,0-6.145-9.226,75.461,75.461,0,0,0-16.411-15.5,75.01,75.01,0,0,0-32.216-12.64,77.66,77.66,0,0,0-34.365,2.883A75.564,75.564,0,0,0,87.358,54.15a74.919,74.919,0,0,0-18.044,12.4A75.973,75.973,0,0,0,61.7,74.738a74.229,74.229,0,0,0-6.416,9.4,73.126,73.126,0,0,0-9.136,44.961A71.326,71.326,0,0,0,48.405,140.3a72.519,72.519,0,0,0,4.046,10.769,74.522,74.522,0,0,0,12.8,18.937,73.686,73.686,0,0,0,17.73,14,75.314,75.314,0,0,0,10.267,4.826,77.333,77.333,0,0,0,11.047,3.3,75.663,75.663,0,0,0,34.774-.5,75.63,75.63,0,0,0,10.722-3.555,77.161,77.161,0,0,0,10.119-5.108,76.123,76.123,0,0,0,9.367-6.629,74.117,74.117,0,0,0,8-7.691,72.818,72.818,0,0,0,16.072-29.583,74.21,74.21,0,0,0,2.1-10.913,72.971,72.971,0,0,0,.415-11.582M147.874,54.663A89.417,89.417,0,0,1,159.3,60.888a78.149,78.149,0,0,1,11.762,8.926,39.557,39.557,0,0,1,2.9,3.024c.437.513.86,1.04,1.257,1.582.2.26.383.527.564.795l.26.4c.029.047.145.173.145.231,0-.08-.535-.43-.6-.48-.542-.448-1.08-.892-1.626-1.329-1.723-1.4-3.479-2.756-5.278-4.057a58.811,58.811,0,0,0-6.412-4.122,12.908,12.908,0,0,0-5.477-1.936,2.578,2.578,0,0,0-1.8.535,2.828,2.828,0,0,0-.824,1.9c-.022.238-.611,4.53-.607,4.768-.513-1.286-5.737-16.476-5.7-16.462m-35.966-4.136a74.745,74.745,0,0,1,24.68,1.012c2.258.477,4.5,1.058,6.7,1.745-.181.163-.224.264-.437.256s-32.256-1.033-32.371-1.08c-.043-.018-.022,0-.058-.029-.072-.054-.13-.235-.173-.314-.1-.188-.206-.372-.307-.56-.126-.231-.253-.466-.379-.7q1.17-.184,2.344-.332m-3.576,6.055q.618-.542,1.239-1.08c.477.018,35.839.972,35.894,1.011.094.069,8.9,23.026,9.23,23.878.047.116-24.507,19.02-25.248,19.623-.069.058-.188.206-.278.228-.108.025-31.4-6.17-31.6-6.257-.1-.047-.087-.043-.134-.173-.126-.343-6.943-18.908-7.409-20.183l-.184-.5a.9.9,0,0,1-.1-.264c.007-.09.1-.137.181-.206.726-.636,17.3-15.115,18.406-16.079M127.6,131.248a10.96,10.96,0,0,1-.473-1.665q-.526-1.853-1.167-3.677a41.538,41.538,0,0,0-5.076-10.064,36.01,36.01,0,0,0-9.233-8.688,68.2,68.2,0,0,0-9.858-5.538q-1.756-.813-3.547-1.535c-.578-.228-1.17-.426-1.745-.665l-.076-.025,2.482.531q3,.639,6,1.282,3.723.791,7.438,1.59l6.7,1.431,3.894.834a3.034,3.034,0,0,1,2,1.217,3.472,3.472,0,0,1,.484,1.712q.217,2.341.433,4.675.341,3.647.683,7.29.331,3.549.665,7.1.184,2,.372,4.006c.007.065.014.126.018.191m-41.392-72c.82-.473,1.655-.921,2.5-1.358a76.249,76.249,0,0,1,8.7-3.811,64.981,64.981,0,0,1,6.455-1.99q1.5,1.371,3,2.745a8.131,8.131,0,0,0-3.352-.242,35.44,35.44,0,0,0-4.765.715,65.234,65.234,0,0,0-10.111,2.962c-.722.278-1.441.574-2.142.907-.1.051-1.131.639-1.17.607a9.821,9.821,0,0,0,.889-.535M52.148,99.873l-.022.04-.444.282A70.654,70.654,0,0,1,61.06,81.11q1.68-2.411,3.555-4.682c.119.116-.213.549-.267.654-.3.56-.6,1.12-.9,1.683q-1.49,2.78-2.977,5.563-1.821,3.4-3.638,6.8Q55.252,94.068,53.683,97q-.769,1.436-1.535,2.872m2.077,1.676c.676-1.25,11.95-22.228,12.452-23.156.148-.278.3-.553.444-.827a1.143,1.143,0,0,1,.173-.329.938.938,0,0,1,.322-.051l19.226-2.912c.061-.011.242-.069.293-.036.079.054.141.39.173.477.13.358,6.614,18.073,7.373,20.147.1.282.032.307-.119.578-.376.654-14.273,24.9-14.425,25.161-.043.079-.112.278-.188.332a.8.8,0,0,1-.3.025c-.354.025-18.438,1.275-18.568,1.214-.061-.033-.072-.134-.1-.21-.253-.766-6.622-19.988-6.763-20.414M66.89,168.015a71.022,71.022,0,0,1-6.318-7.6,58.38,58.38,0,0,1-4.808-8.146q-1.225-2.46-2.251-5.007c.181.065.238.069.336.2s.173.26.26.387c.347.517.694,1.037,1.04,1.553q1.772,2.644,3.544,5.285,2.151,3.2,4.3,6.4,1.832,2.726,3.659,5.451c.376.564.755,1.131,1.134,1.694a3.431,3.431,0,0,1,.441.657,1.762,1.762,0,0,1,.022.517c-.459-.455-.91-.914-1.355-1.384m25.208.217L70.535,167.12c-.072,0-.242.022-.307-.018s-.163-.242-.213-.318c-.452-.672-14-20.746-14.013-20.819a1.254,1.254,0,0,1,.1-.408c.087-.35,4.591-18.308,5.119-20.4.022-.094.018-.152.087-.188a2.136,2.136,0,0,1,.665-.043c1.095-.065,17.412-1.066,17.752-1.087.072,0,.21-.04.271,0,.09.047.188.246.249.325.184.242,16.133,21.306,17.315,22.867.2.26.242.256.159.564-.217.791-4.537,16.661-5.271,19.348-.116.43-.235.86-.35,1.29m50.369,18.084a73.219,73.219,0,0,1-19.97,3.757q-2.937.135-5.87.036c.213-.228.426-.459.636-.686a2.186,2.186,0,0,1,.376-.4,1.187,1.187,0,0,1,.318-.065l1.994-.412,7.825-1.615q4.98-1.03,9.96-2.055l8.511-1.756c.863-.177,1.727-.358,2.59-.535.256-.054.73-.256.957-.123a5.22,5.22,0,0,1,.686.611,73.566,73.566,0,0,1-8.012,3.24m7.026-7.135c-.459.094-32.129,6.766-32.527,6.849a2.265,2.265,0,0,1-.571.119.5.5,0,0,1-.21-.13c-.267-.209-19.655-15.331-20.634-16.094a5.35,5.35,0,0,1-.657-.513c-.087-.1-.072-.069-.033-.22.267-.972,5.469-19.981,5.607-20.479.04-.137.065-.5.166-.607.054-.054.249-.076.325-.1.329-.1,30.287-9.14,30.533-9.028a5.631,5.631,0,0,1,.672.419c.419.26,23.579,14.728,23.821,14.883.119.076.1.04.09.163-.022.271-6.441,24.193-6.582,24.735M183.2,133.054c-.217.206-24.626,18.456-25.1,18.81-.574-.354-24.066-14.93-24.9-15.447-.123-.076-.112-.058-.13-.188-.047-.293-.033-.6-.051-.9-.069-1.322-1.68-31.284-1.734-32.332a.958.958,0,0,1-.011-.365c.072-.148,25.7-20.324,25.826-20.295.278.072,26.165,13.875,26.216,13.951s0,.383,0,.48c0,1.058-.022,35.254-.036,36.085,0,.134.007.108-.083.2m6.6,1.441c-.578-.39-2.821-1.889-2.847-1.947a1.574,1.574,0,0,1,0-.47c0-.343,0-.686,0-1.03,0-1.152.043-32.4.043-33.491,0-.307,0-.61,0-.918a1.047,1.047,0,0,1,0-.336c.036-.076.213-.159.278-.206.137-.1.275-.206.412-.307a69.392,69.392,0,0,1,3.4,14.728A70.208,70.208,0,0,1,189.8,134.5" transform="translate(1295.649 148.916)" fill="#002d66"/>
    <path id="Caminho_87" data-name="Caminho 87" d="M67.7,78.115A26.19,26.19,0,0,1,51.9,66.862l-3.374-5.234L55.4,79.99l15.732-1.037Z" transform="translate(1303.216 188.719)" fill="#31a7df"/>
    <path id="Caminho_88" data-name="Caminho 88" d="M70.336,90.174a26.192,26.192,0,0,1-11.795-7.08L49.633,73.8l11.2,18.272,19.645.957Z" transform="translate(1306.114 220.523)" fill="#31a7df"/>
    <path id="Caminho_89" data-name="Caminho 89" d="M87.01,90.483a26.17,26.17,0,0,1-14.193-3.388L60.375,80.029l17.893,14.8,31.36-5.44Z" transform="translate(1334.177 236.791)" fill="#31a7df"/>
    <g id="Grupo_39" data-name="Grupo 39" transform="translate(1552.589 316.547)">
      <path id="Caminho_19" data-name="Caminho 19" d="M31.691,6.4A19.549,19.549,0,0,0,4.78,4.465,18.15,18.15,0,0,0,2.538,6.4Z" transform="translate(2.412 0)" fill="#fff"/>
      <path id="Caminho_20" data-name="Caminho 20" d="M15.961,24.472A12.207,12.207,0,0,1,8.733,7.155H.834A19.572,19.572,0,0,0,16.015,32.043Z" transform="translate(-0.001 6.803)" fill="#fff"/>
      <path id="Caminho_21" data-name="Caminho 21" d="M19.009,7.132a12.219,12.219,0,0,1-3.086,15.15,12.4,12.4,0,0,1-4,2.158l.055,7.571a19.43,19.43,0,0,0,8.588-4.038A19.412,19.412,0,0,0,27.656,14.8a19.545,19.545,0,0,0-.74-7.671Z" transform="translate(11.334 6.781)" fill="#fff"/>
    </g>
  </g>
</svg>
