<svg xmlns="http://www.w3.org/2000/svg" width="584.121" height="558.533" viewBox="0 0 584.121 558.533">
  <g id="Grupo_2061" data-name="Grupo 2061" transform="translate(-216.553 -659.033)">
    <g id="Grupo_2056" data-name="Grupo 2056" transform="translate(340.171 659.033)" opacity="0.05">
      <path id="Caminho_5313" data-name="Caminho 5313" d="M629.43,286.014c-4.682-3.52-9.472-7.3-12.68-12.082-2.845-4.245-3.085-8.975-4.446-13.543-2.43-8.156-3.908-16.1-9.245-22.876s-11.987-10.04-20.475-11.115c-4.187-.529-8.034.766-11.963,2.285A102,102,0,0,0,545.2,243.238a18.07,18.07,0,0,0-6.679,8.986c-.945,3.1-.2,6.166.889,9.177s3.379,4.966,5.789,6.956c-1.5,8.636-.135,15.272,4.54,22.629,1.071,1.685,2.8,2.6,3.477,4.438,1.58,4.253,1.154,8.472,1.356,12.922a3.621,3.621,0,0,0,.826,2.471,4.682,4.682,0,0,0,2.65,1.161c2.072.418,4.189.776,6.26,1.209a10.556,10.556,0,0,0,1.48,3.409,2.782,2.782,0,0,0,2.836.984c.241-.03.431-.206.644-.161s.322.32.169.382c.5-7.664,3.724-14.841,10.261-18.687s11.666-3.239,18.825-3.632,14.815-.315,21.907-2.158c-6.133,2.9-13.192,3.808-19.693,4.251-5.455.371-9.541-.077-14.628,1.771a22.383,22.383,0,0,0-12.161,9.527,25.437,25.437,0,0,0-3.487,14.016,48.9,48.9,0,0,0,2.4,14.616c6.967,19.9,17.034,37.412,29.206,54.54,3.162,4.448,6.705,8.365,9.248,13.2a68.37,68.37,0,0,1,4.441,11.659c4.25,13.691,8.513,27.078,13.346,40.665.685,1.925,1.241,4.727,1.856,6.8a10.025,10.025,0,0,1,4.47-3.082c-1.083,2.365-2.532,4.771-3.073,7.3a10.73,10.73,0,0,0,.844,6.923c.542,1.235,1.206,2.062,1.775,3.262a9.1,9.1,0,0,0,2.134,3.367c1.68,1.4,3.762,1.659,5.816,2.135,1.1.255,2.393-.011,3.368.529a31.676,31.676,0,0,1,4.124,3.093c1.085.9,1.254,2.007,2.426,2.544a6.637,6.637,0,0,0,5.108.569,5.686,5.686,0,0,0,4.255-4.192,4.752,4.752,0,0,0,3.59-1.105,16.715,16.715,0,0,0,2.656-3.081c2.777-1.575,4.448-3.513,4.56-6.8s-1.147-6.305-2.09-9.359c-.53-1.719-1.318-3.533-1.929-5.078a6.7,6.7,0,0,0-2.481-3.363,2.715,2.715,0,0,0-1.925-.282c-6.85.3-13.624.747-20.448,1.13a37.662,37.662,0,0,1,12.957-2.339,7.691,7.691,0,0,0,.3-4.134,4.56,4.56,0,0,0-2.688-2.726,6.99,6.99,0,0,0-3.572-.419,30.384,30.384,0,0,0-6.823,1.607,26.4,26.4,0,0,1,10.78-3.348,1.442,1.442,0,0,1,1.026.414,7,7,0,0,0-4.037-6.253c-2.4-1.109-4.5-.769-6.842-.4a25.58,25.58,0,0,0-10.977,4.692c5.629-4.753,10.755-6.919,18.179-6.749a2.948,2.948,0,0,1,1.87,1.054,15.814,15.814,0,0,0-2.832-6.384c-2.2-2.961-4.693-4.594-8.115-4.842s-5.571,1.55-8.606,2.482a14.947,14.947,0,0,1,5.065-3.53,12.851,12.851,0,0,1,5.76-.783,11.169,11.169,0,0,1,5.537,2.715,95.79,95.79,0,0,0-3.16-14.2c-2.369-7.242-4.721-14.455-6.5-21.7-.792-3.217-1.21-6.44-2.935-9.016s-4.046-3.092-6.738-3.341c-4.5-.417-8.378.665-12.684,1.5a29.766,29.766,0,0,1,10.759-3.583,83.03,83.03,0,0,0-9.955-3.8,8.157,8.157,0,0,0-2.139-.424,22.157,22.157,0,0,0-6.7,1.16c4.384-1.829,8.474-2.887,13.209-1.914s8.769,3.488,13.076,5.46c-1.945-6.139-5.153-11.935-10.819-15.04-9.619-5.269-17.885-5.607-28.438-4.784,14.062-3.313,23.145-.59,34.361,8.243a37.831,37.831,0,0,0-9.171-17,57.442,57.442,0,0,0-12.89-10.374,11.027,11.027,0,0,0-6.345-1.806c-2.462.062-4.275,1.758-5.462,3.838,1.459-2.673,3.4-5.345,6.62-5.595a13.572,13.572,0,0,1,8.4,2.265c6.882,4.033,12.268,9.426,17.4,15.477-.315-5.026-.1-10.362-2.531-14.878a16.987,16.987,0,0,0-8.816-7.835c-10.136-4.413-20.166-5.366-31.125-5.233a83.216,83.216,0,0,1,34.275,4.142,72.889,72.889,0,0,0-30.1-14.638c5.212.97,10.7,1.7,15.724,3.222a26.459,26.459,0,0,1,7.308,3.106c5.407,3.61,8.87,8.287,12.3,13.7-4.44-13.77-12.185-21.493-24.481-28.731,6.413,1.884,12.648,3.99,17.527,8.658s6.619,10.2,8.791,16.336a53.734,53.734,0,0,0-7.089-27.107,29.459,29.459,0,0,1,9.355,17.01c1.707,10.394-.644,20.474.5,30.729,1.756,15.714,7.709,29.365,13.127,44.2,3.679,10.073,7.48,20.916,10.52,31.288,1.066,3.636.482,6.883,1.366,10.591a25.7,25.7,0,0,0,5.051,10.383,27.233,27.233,0,0,0,5.145,4.408c5.435,3.984,11.043,7.854,16.527,11.8a6.646,6.646,0,0,0,2.3,1.1c-.3-5.02-.856-9.383-3.685-13.668-.9-1.366-2.43-2.152-3.736-3.112-2.672-1.962-5.5-3.738-8.193-5.668,4.293,2.32,8.656,4.494,12.974,6.774.149.079.3.218.493.12a.531.531,0,0,0,.317-.535c-.228-3.254.167-5.957-1.571-9.009s-4.786-5.55-7.661-7.7c-4.433-3.316-9.1-6.31-13.713-9.349,6.388,3.623,12.976,6.906,19.486,10.276-1.6-25.067-.76-46,10.525-69.034,4.007-8.179,10.267-16.889,12.445-25.9s1.034-15.9-1.595-24.484c2.682,3.745,5.276,6.569,5.957,11.388s-.6,9.848-1.787,14.589a58.15,58.15,0,0,0,6.548-7.72,27.283,27.283,0,0,0,2.792-5.427c.942-2.6,1.007-5.1,1.418-7.788.174,5.748-.371,10.04-3.165,15.314s-7.375,10.046-11.509,14.475c20.964-5.06,42.294-7.48,63.692-8.906,2.557-.17,4.248.329,6.647.086a2.2,2.2,0,0,0,1.243-.551,2.239,2.239,0,0,0,.614-1.124,32.556,32.556,0,0,0,.765-3.173,13.156,13.156,0,0,1-.332,5.245c10.252-1.286,20.05-.235,30.307.812a10.519,10.519,0,0,0,7.63-1.815,14.975,14.975,0,0,1-3.936,3.562c1.655,2.427,3.211,4.539,6.113,5.417a5.28,5.28,0,0,0,3.1-.358,62.4,62.4,0,0,0,9.592-3.556c1.488-.708,2.9-1.418,3.589-3.049s.305-3.171-.4-4.825a27.9,27.9,0,0,0-2.941-5.056c-1.057-1.431-1.844-2.99-3.545-3.49-3.533-1.036-6.955.12-10.529-.014A20,20,0,0,0,817.1,335.4a15.084,15.084,0,0,1-3.9-4.26c-.9-1.668-1.49-3.638-2.9-4.764s-2.866-1.18-4.44-1.413c-3.341-.494-6.516-.662-9.842-.9,1.961,2.6,3.779,5.283,5.7,7.9-3.3-3.067-6.39-6.258-9.89-9.122s-6.406-6.182-10.651-8.132c-11.282-5.183-21.3-5.5-33.182-1.968a108.983,108.983,0,0,1,10.262,11.173c-15.6-11.065-32.418-17.04-50.539-22.7a52.714,52.714,0,0,1,8.891,15.615c-3.777-4.835-6.932-9.65-11.5-13.925s-9.887-6.382-16.116-7.447a216.815,216.815,0,0,0-26.457-2.657c19.688,16.187,26.66,29.588,21.012,54.985,1.754-15.664,1.605-27.125-7.989-40.438A46.805,46.805,0,0,0,661.4,294.882c-5.62-3.351-12.73-4.147-19.3-4.087,7.9,4.133,15.811,9.241,21.653,15.848s8.011,13.178,10.548,21.278c-3.773-8.315-7.881-15.269-14.142-22.1a54.02,54.02,0,0,0-13.906-10.907c-2.917-1.574-6.9-2.342-9.752-3.756S631.818,287.807,629.43,286.014Z" transform="translate(-371.899 -226.277)" fill="#231f20"/>
      <path id="Caminho_5314" data-name="Caminho 5314" d="M616.521,447.221c1.074-1.216,1.97-1.629,1.894-3.519s-.395-3.969-2.239-5.228a8.552,8.552,0,0,0-6.009-1.519,135.942,135.942,0,0,0-34.99,7.549c11.759-6.015,23.368-9.6,36.516-10.423,1.945-.121,3.486.229,4.3-1.663,1.132-2.635-.378-4.8-1.11-7.385-1.114-3.941-1.878-8.3-3.7-12.025-4.862-9.951-12.327-18.833-18.5-27.689-5.356-7.678-8.714-15.576-12.889-23.443-2.432,18.278,3.328,43.559.075,60.04-2.9,14.7-11.822,20.717-14.533,32.565-1.671,7.3-.681,6.37,1.3,12.4a3.042,3.042,0,0,0,2.057,4.525c2.251.388,3.963-.94,5.92-1.9,10.872-5.354,21.589-9.315,33.725-9.4,4.882-.033,8.781,1.856,13.515,1.955a1.516,1.516,0,0,0,1.384-.453,1.574,1.574,0,0,0,.106-1.476c-.561-2.251-1.173-4.522-1.885-6.708a4.664,4.664,0,0,0-1.422-2.384,3.162,3.162,0,0,0-2.241-.648c-13.669.591-25.9,3.734-38.495,9C591.277,453.031,603,448.843,616.521,447.221Z" transform="translate(-372.295 -228.308)" fill="#231f20"/>
      <path id="Caminho_5315" data-name="Caminho 5315" d="M624.284,467.1c-9.841.018-19.251-1.516-29.138.3s-19.527,4.2-26.854,11.78-6.418,16.431-3.374,25.837c-3.272,10.774-4.036,20.792-4.641,32.071-.465,8.651-5.157,17.1-7.3,25.419-1.492,5.8-1.846,11.377-2.5,17.185-1.033,9.134-1.978,18.066-2.933,27.235a146.94,146.94,0,0,0,0,31.06c.132,1.228-.138,2.388,0,3.631a3.753,3.753,0,0,0,1.691,3.072,2.479,2.479,0,0,0,3.147-.6c1.1,4.308,2.774,8.011,6.759,10.264s8.038,2.545,12.456,2.241,8.367-2.065,12.585-3.172a22.178,22.178,0,0,0,13.213-.917c4.473-1.669,8.44-4.447,12.469-6.879,28.437-17.171,56.406-32.016,87.916-43.268,20.14-7.192,38.984-9.995,60.607-12.176,16-1.613,32.8,1.211,48.815-.712,3.619-.434,7.165-.993,9.759-3.639a15.2,15.2,0,0,0,3.809-15.845c-1.83-5.859-5.548-10.254-10.1-14.139-5.08-4.332-10.227-8.354-16.963-9.165-11.487-1.383-22.888,1.811-34.289.617-5.051-.53-9.469-2.968-14.548-2.847-7.271.173-12.038,4.393-16.274,9.92a42.716,42.716,0,0,1,13.013,1.25c1.875.493,3.844.81,5.229,2.372,2.96,3.342,2.6,7.459,3.94,11.449,1.682,5.006,4.556,9.128,7.328,13.546-4.665-4.351-8.611-9.006-11.125-14.922-1.2-2.818-1.477-5.679-3.766-7.906a6.969,6.969,0,0,0-4.7-2.117c-3.925-.226-7.235-1.033-11.17-.1-5.816,1.384-10.14,6.9-16,8.462-6.881,1.84-14.052,1.077-20.881,3.263-.187,8.991.544,17.309,3.575,25.849a47.711,47.711,0,0,1-7.557-24.628c-13.553,4.283-27.464,6.537-41.391,9.191s-26.868,6.422-39.033,13.781c-4.881,2.951-8.549,7.135-12.141,11.457-5.036,6.058-9.3,12.259-11.994,19.745s-1.791,14.765-.3,22.432a47.159,47.159,0,0,1-4.472-16.932c-4.162,3.351-8.475,6.566-12.589,9.938,3.99-4.623,8.943-9.245,12.741-13.862,7.121-8.655,11.368-18.327,17.081-27.762a100.863,100.863,0,0,0-24.739,6.85,15.274,15.274,0,0,0-5.716,4.594,66.48,66.48,0,0,1,25.187-14.565,118.651,118.651,0,0,0-19.647-.253,88.36,88.36,0,0,1,21.923-3.267c2.757-.061,5.559.5,8.346-.1,5.218-1.124,9.641-3.827,14.386-6.237a123.246,123.246,0,0,1,22.3-8.523c4.225-11.056,7.759-21.284,5.985-33.231-.644-4.339-2.657-7.507-5.67-10.759-10.77-11.626-23.666-18.824-38.178-25.043,18.576,5.971,32.95,13.962,45.716,28.936-.84-6.578-2.485-12.382-6.566-17.689s-9.269-9.172-14.259-13.548a17.8,17.8,0,0,0-4.255-2.587c18.325,13.08,26.79,26.02,28.656,48.641,4.723-10.077,6.571-19.225,5.319-30.3a39.558,39.558,0,0,1-1.54,28.371c-4.044,9.467-9.273,17.635-12.423,27.4,10.518-2.7,20.873-4.045,30.241-10.075a41.2,41.2,0,0,0,13.709-14.627c8.117-14.546,12.971-28.667,12-45.59-.592-10.337-6.641-17.22-14.047-23.845a6.421,6.421,0,0,0,3.422.631c1.025-1.711,1.571-3.411.813-5.327a13.145,13.145,0,0,0-3.515-4.734,39.954,39.954,0,0,0-8.727-5.785c.161,3.913,1.387,7.395,1.577,11.362a8.722,8.722,0,0,1-4.854,8.819,9.73,9.73,0,0,1-6.158,4,7.042,7.042,0,0,1-5.265,4.392c-3.872.556-6.591-.705-9.636-2.859-1.2-.848-1.813-2.175-3.01-2.991-3.375-2.3-7.495-2.62-10.865-5s-4.794-6.1-6.421-9.83C627.167,473.117,625.865,470.027,624.284,467.1Z" transform="translate(-372.029 -229.875)" fill="#231f20"/>
      <path id="Caminho_5316" data-name="Caminho 5316" d="M542.42,646.456c-2.748,1.962-5.349,3.923-8.173,5.826-.43.29-.7.743-1.454.476a2.934,2.934,0,0,1-1.607-1.855,41.786,41.786,0,0,0-7.641-12.369c1.884,3.609,3.853,7.211,5.727,10.826a7.446,7.446,0,0,1,1.068,3.157,6.97,6.97,0,0,1-.77,3.157c-5.4,11.555-10.334,24.215-18.894,33.605-13.063,14.33-27.692,25.7-42.1,38.27a4,4,0,0,1-2.466,1.036c-.857.027-1.244-.432-1.834-.832-3.194-2.167-6.347-4.292-9.493-6.509,2.092,2.387,4.649,4.077,6.682,6.57a8.585,8.585,0,0,1,1.894,8.351,5.768,5.768,0,0,1-1.918,2.444c-6.767,6.346-13.822,12.418-20.7,18.652a47.787,47.787,0,0,0-19.986,5.319c-2.141,1.118-3.72,2.865-6.037,3.676s-4.343,1.3-6.662-.022-3.048-3.926-4.492-6.159a6.841,6.841,0,0,0-6.214-3.17c4.293,3.4,4.858,8.975,8.919,12.633,2.161,1.946,5.24.988,7.744-.257s4.322-3.581,6.784-5.123a33.125,33.125,0,0,1,16.961-5.132,3.569,3.569,0,0,1,3.094,1.127c.84.974.44,2.3.7,3.566.869,4.146,3.891,7.563,3.509,12.019-.2,2.275-2.087,3.774-3.931,5.123-6.577,4.815-12.878,9.2-21.333,9.213-5.673.009-10.191-3.87-15.586-5.008-9.07-1.912-18.309-1.164-27.482-2.6-4-.625-7.546-2.886-7.352-7.346.118-2.707,2.476-3.823,4.6-5.3,8.271-5.76,16.733-11.133,24.026-18.312a399.278,399.278,0,0,1,36.308-32.268,19.094,19.094,0,0,1,14.036-4.089c-.926-1.359-1.681-3.5-.571-4.867,10.25-12.672,17.707-25.93,26.4-39.791a98.693,98.693,0,0,1,33.891-33.148,137.713,137.713,0,0,0-16.971,7.3,89.648,89.648,0,0,1,11.829-20.863,48.687,48.687,0,0,1,15.855,5.3,30.283,30.283,0,0,0-15.662-9.653,77.73,77.73,0,0,1,17.631-22.24c7.307-6.568,14.94-12.853,22.366-19.318-.538,14.051-.77,27.814-1.383,41.938C541.347,628.6,540.9,637.654,542.42,646.456Z" transform="translate(-369.372 -231.543)" fill="#231f20"/>
    </g>
    <path id="Caminho_5355" data-name="Caminho 5355" d="M152.407,136.582A62,62,0,1,1,90.622,198.56a61.914,61.914,0,0,1,61.785-61.978Zm13.106,110.542c2.5.769,4.849,1.442,7.105,1.923a46.817,46.817,0,0,0,5.377.817h0a56.387,56.387,0,0,1-25.588,6.059c-1.008,0-2.064,0-3.072-.1h0a20.428,20.428,0,0,1-.193-2.549c2.545-.769,5.233-1.635,7.922-2.6,2.785-1.1,5.569-2.259,8.449-3.558Zm30.293-11.2h0c.528-1.49.528-1.49,1.1-3.077.721-2.4,1.392-4.952,2.016-7.6,2.017-1.875,3.841-3.75,5.521-5.577,1.056-1.3,1.056-1.3,2.064-2.5h0a57.234,57.234,0,0,1-10.706,18.751Zm13.634-41.543h0c-1.488-2.019-1.488-2.019-3.264-4.135-1.584-1.683-3.313-3.414-5.233-5.24-.336-3.03-.72-6.107-1.2-8.992-.528-2.837-1.1-5.53-1.777-8.174,1.1-.481,1.1-.481,2.065-.962h.047a57.2,57.2,0,0,1,9.362,27.5Zm-23.763,24.185c2.4,1.395,4.657,2.741,6.769,3.943,1.968,1.106,3.793,2.116,5.425,3.029-.624,2.693-1.3,5.289-2.017,7.693-.768,2.308-.768,2.308-1.584,4.375v.048a56.632,56.632,0,0,1-11.041,9.232l-.577.337c-1.535.962-1.535.962-3.12,1.827a49.762,49.762,0,0,1-6-.962q-3.456-.792-7.2-2.019c.336-2.308.576-4.76.864-7.406.192-2.837.431-5.818.624-8.943,3.121-1.779,6.145-3.607,9.169-5.433,2.976-1.924,5.857-3.8,8.69-5.723Zm-74.459-.817c2.5,1.875,5.089,3.8,7.777,5.674,2.784,1.924,5.617,3.75,8.545,5.626.336,3.029.72,5.962,1.1,8.7.432,2.6.865,5,1.345,7.261q-3.313.865-6.193,1.442a23.2,23.2,0,0,1-2.4.289v.047a57.456,57.456,0,0,1-18.819-20.05v-.048c-.385-1.4-.385-1.4-.769-2.837,1.1-.77,2.448-1.636,3.937-2.645,1.632-1.058,3.5-2.212,5.473-3.462Zm56.456-33.369c3.169,1.924,6.289,3.8,9.362,5.722,2.976,1.874,5.857,3.751,8.641,5.578.048,3.606,0,7.213-.1,10.771-.1,3.509-.288,7.02-.529,10.482-2.832,1.875-5.712,3.8-8.689,5.673-3.072,1.875-6.145,3.7-9.266,5.53-2.976-1.539-6.049-3.124-9.169-4.76-3.168-1.731-6.433-3.462-9.649-5.29-.048-3.654-.048-7.356-.1-11.107V195.531c3.313-1.923,6.626-3.8,9.89-5.722,3.265-1.827,6.433-3.654,9.6-5.434Zm-40.23.289c2.929,1.683,5.953,3.463,9.073,5.242q4.752,2.74,9.649,5.626v11.443c.048,3.751.048,7.453.1,11.107-3.169,1.731-6.241,3.415-9.313,5-2.929,1.587-5.809,3.029-8.594,4.424-2.928-1.827-5.856-3.751-8.641-5.626-2.736-1.923-5.328-3.8-7.873-5.674-.24-3.269-.48-6.635-.672-10.049-.1-3.414-.144-6.875-.1-10.337,2.4-1.828,4.993-3.655,7.681-5.482,2.833-1.875,5.713-3.8,8.69-5.674Zm-26.356-11.348v.049c-.528,2.02-.528,2.02-1.008,4.087-.528,2.741-.961,5.53-1.345,8.414-1.488,1.827-1.488,1.827-2.736,3.463v.047a56.036,56.036,0,0,1,5.089-16.06Zm14.21-14.761c1.776.576,3.649,1.25,5.761,1.972,2.16.914,4.56,1.875,7.009,2.981-.336,2.933-.624,6.058-.912,9.281-.289,3.317-.481,6.779-.672,10.289-2.929,1.923-5.809,3.8-8.593,5.673-2.641,1.877-5.185,3.7-7.634,5.53-2.16-1.635-4.224-3.174-6.1-4.665-1.68-1.393-3.217-2.74-4.56-3.942.383-2.884.815-5.77,1.343-8.51.769-3.462.769-3.462,1.633-6.731h0c.336-.578.672-1.155,1.008-1.684V168.7c2.4-2.356,2.4-2.356,5.041-4.759,2.112-1.779,4.369-3.607,6.673-5.385Zm67.066-1.826c2.64,1.73,5.185,3.461,7.681,5.239,2.352,1.828,4.657,3.7,6.865,5.578.624,2.6,1.2,5.337,1.729,8.174.432,2.933.815,6.01,1.152,9.135-1.825,1.346-3.841,2.789-6,4.328-2.353,1.587-4.8,3.221-7.393,4.9-2.785-1.876-5.616-3.7-8.593-5.626-3.072-1.924-6.145-3.847-9.313-5.722-.1-3.606-.24-7.116-.385-10.53-.191-3.317-.383-6.492-.624-9.52,2.833-1.249,5.473-2.4,8.065-3.414,2.4-.962,4.705-1.779,6.817-2.547Zm-3.552-9.041h0c.384.866.384.866.72,1.731.673,1.827,1.3,3.847,1.92,6.011-2.16.673-4.416,1.49-6.865,2.356-2.545,1.009-5.185,2.115-8.018,3.317q-4.536-2.38-9.073-4.616c-2.976-1.347-5.9-2.645-8.785-3.848.144-2.307.193-4.423.288-6.394.048-1.731.192-3.27.289-4.568.864-.241.864-.241,1.68-.433h0a14.209,14.209,0,0,1,1.44-.049,56.9,56.9,0,0,1,26.4,6.491ZM146.6,141.534h0l1.153.194c-.193,1.345-.336,2.883-.432,4.567-.1,1.971-.24,4.087-.336,6.4-2.929,1.346-5.9,2.788-8.881,4.279-2.977,1.586-5.953,3.222-8.882,4.953-2.5-1.058-4.848-2.02-7.057-2.837-2.064-.771-3.985-1.347-5.761-1.877a45.163,45.163,0,0,1,1.824-4.568v-.047a56.41,56.41,0,0,1,28.373-11.06Zm-15.506,104.58c2.737,1.395,5.521,2.741,8.257,3.943,2.784,1.154,5.521,2.212,8.161,3.125.144,1.395.144,1.395.24,2.548h0a56.659,56.659,0,0,1-24.868-8.029h.048c.912-.1.912-.1,1.92-.24,1.92-.336,4.033-.77,6.241-1.346ZM100.8,223.274h0l.192.193a3.2,3.2,0,0,0,.1.336v.048c-.1-.193-.193-.385-.288-.578Z" transform="translate(125.931 803.097)" fill="#110d0e" fill-rule="evenodd" opacity="0.05"/>
  </g>
</svg>
